<?xml version="1.0" standalone="no"?>
<!DOCTYPE svg PUBLIC "-//W3C//DTD SVG 20010904//EN"
 "http://www.w3.org/TR/2001/REC-SVG-20010904/DTD/svg10.dtd">
<svg version="1.0" xmlns="http://www.w3.org/2000/svg"
 width="260.000000pt" height="260.000000pt" viewBox="0 0 260.000000 260.000000"
 preserveAspectRatio="xMidYMid meet">
<metadata>
Created by potrace 1.14, written by Peter Selinger 2001-2017
</metadata>
<g transform="translate(0.000000,260.000000) scale(0.100000,-0.100000)"
fill="#000000" stroke="none">
<path d="M962 1787 l-332 -211 68 -44 c37 -24 130 -85 206 -134 130 -84 215
-148 161 -120 -18 9 -50 -8 -222 -116 -111 -70 -202 -130 -203 -135 0 -4 48
-39 108 -77 220 -142 337 -219 349 -229 7 -6 15 -11 18 -11 3 0 44 -26 91 -57
l85 -57 32 19 c18 10 82 51 142 91 61 39 175 113 255 164 209 133 240 153 240
156 0 4 -90 64 -96 64 -3 0 -32 18 -64 40 -32 22 -64 40 -69 40 -6 0 -11 5
-11 10 0 6 -6 10 -14 10 -8 0 -16 4 -18 8 -3 10 -140 92 -152 92 -4 0 -4 -5 0
-12 5 -7 3 -8 -6 -3 -17 10 -9 16 232 171 109 69 196 129 193 133 -2 4 -32 25
-67 46 -35 21 -99 62 -143 91 -44 28 -152 97 -240 152 -88 55 -164 105 -170
109 -30 26 -53 14 -373 -190z"/>
</g>
</svg>
